<svg width="17" height="18" viewBox="0 0 17 18" fill="none" xmlns="http://www.w3.org/2000/svg">
<path d="M16 8.58336C16.0029 9.68325 15.7459 10.7683 15.25 11.75C14.662 12.9265 13.7581 13.916 12.6395 14.6078C11.521 15.2995 10.2319 15.6662 8.91667 15.6667C7.81678 15.6696 6.73176 15.4126 5.75 14.9167L1 16.5L2.58333 11.75C2.08744 10.7683 1.83047 9.68325 1.83333 8.58336C1.83384 7.26815 2.20051 5.97907 2.89227 4.86048C3.58402 3.7419 4.57355 2.838 5.75 2.25002C6.73176 1.75413 7.81678 1.49716 8.91667 1.50002H9.33333C11.0703 1.59585 12.7109 2.32899 13.941 3.55907C15.171 4.78915 15.9042 6.42973 16 8.16669V8.58336Z" stroke="#2D2D2D" stroke-width="1.66667" stroke-linecap="round" stroke-linejoin="round"/>
</svg>
